<?xml version="1.0" encoding="UTF-8" standalone="no"?>
<svg width="45px" height="44px" viewBox="0 0 45 44" version="1.1" xmlns="http://www.w3.org/2000/svg" xmlns:xlink="http://www.w3.org/1999/xlink">
    <!-- Generator: sketchtool 3.6.1 (26313) - http://www.bohemiancoding.com/sketch -->
    <title>behance</title>
    <desc>Created with sketchtool.</desc>
    <defs></defs>
    <g id="Page-1" stroke="none" stroke-width="1" fill="none" fill-rule="evenodd">
        <g id="Landing" transform="translate(-567.000000, -423.000000)" fill="#000000">
            <g id="behance" transform="translate(567.655518, 423.299694)">
                <path d="M18.3717056,18.1819086 C18.3717056,16.5119083 17.2347947,16.5119083 17.2347947,16.5119083 L16.632487,16.5119083 L12.557897,16.5119083 L12.5561384,16.5119083 L12.5561384,20.0962563 L16.9446319,20.0962563 C17.7034517,20.0962563 18.3717056,19.8545457 18.3717056,18.1819086 L18.3717056,18.1819086 Z" id="Shape"></path>
                <path d="M29.2106074,20.0962563 C26.7301546,20.0962563 26.3837177,22.5696146 26.3837177,22.5696146 L31.6611646,22.5696146 C31.6611646,22.5713725 31.6936981,20.0962563 29.2106074,20.0962563 L29.2106074,20.0962563 Z" id="Shape"></path>
                <path d="M17.2347947,22.5713725 L12.5587762,22.5713725 L12.5587762,26.8659101 L16.7010709,26.8659101 C16.7714134,26.8659101 16.8751686,26.8694259 16.9991473,26.8659101 C17.6647633,26.8492101 18.9300493,26.6593575 18.9300493,24.7792887 C18.9300493,22.5502778 17.2347947,22.5713725 17.2347947,22.5713725 L17.2347947,22.5713725 Z" id="Shape"></path>
                <path d="M21.82904,0 C9.79255695,0 0,9.78883862 0,21.8207513 C0,33.8517851 9.79255695,43.6415026 21.82904,43.6415026 C33.8646438,43.6415026 43.6580801,33.8517851 43.6580801,21.8207513 C43.6580801,9.78883862 33.8664024,0 21.82904,0 L21.82904,0 Z M25.6917232,14.6037132 L32.3206257,14.6037132 L32.3206257,16.5822241 L25.6917232,16.5822241 L25.6917232,14.6037132 L25.6917232,14.6037132 Z M22.3399025,24.9788098 C22.3399025,29.8807002 17.2347947,29.7207317 17.2347947,29.7207317 L12.5587762,29.7207317 L12.4216083,29.7207317 L8.87458717,29.7207317 L8.87458717,13.6579656 L12.4216083,13.6579656 L12.5587762,13.6579656 L17.2347947,13.6579656 C19.7767972,13.6579656 21.7824381,15.0616448 21.7824381,17.9358033 C21.7824381,20.8090827 19.3310016,20.9919038 19.3310016,20.9919038 C22.5623607,20.9910249 22.3399025,24.9788098 22.3399025,24.9788098 L22.3399025,24.9788098 Z M34.7421667,24.7151255 L26.4144925,24.7151255 C26.4144925,27.7000313 29.2431408,27.5119366 29.2431408,27.5119366 C31.9126391,27.5119366 31.8194353,25.7839257 31.8194353,25.7839257 L34.6498421,25.7839257 C34.6498421,30.3702739 29.1508162,30.0547318 29.1508162,30.0547318 C22.5535679,30.0547318 22.9773815,23.9152833 22.9773815,23.9152833 C22.9773815,23.9152833 22.9712266,17.7433137 29.1508162,17.7433137 C35.6539815,17.7433137 34.7404081,24.7151255 34.7421667,24.7151255 L34.7421667,24.7151255 Z" id="Shape"></path>
            </g>
        </g>
    </g>
</svg>