<?xml version="1.0" encoding="UTF-8" standalone="no"?>
<svg width="44px" height="44px" viewBox="0 0 44 44" version="1.1" xmlns="http://www.w3.org/2000/svg" xmlns:xlink="http://www.w3.org/1999/xlink">
    <!-- Generator: sketchtool 3.6.1 (26313) - http://www.bohemiancoding.com/sketch -->
    <title>deviantart</title>
    <desc>Created with sketchtool.</desc>
    <defs></defs>
    <g id="Page-1" stroke="none" stroke-width="1" fill="none" fill-rule="evenodd">
        <g id="Landing" transform="translate(-392.000000, -609.000000)" fill="#000000">
            <g id="deviantart" transform="translate(392.023411, 609.232416)">
                <path d="M21.8179487,0 C9.76863779,0 0,9.76492854 0,21.8096642 C0,33.8543999 9.76863779,43.6193285 21.8179487,43.6193285 C33.8672597,43.6193285 43.6358975,33.8543999 43.6358975,21.8096642 C43.6358975,9.76492854 33.8672597,0 21.8179487,0 L21.8179487,0 Z M35.1140634,22.757018 L24.1151388,25.7762342 L23.5919544,24.8369126 L22.3933623,22.6726799 L19.7185152,17.8569275 C21.6251026,17.5316233 23.2696514,17.4468389 24.6954627,17.5298384 L27.1886237,21.511134 L33.1641749,20.0635524 C30.8134164,17.7650034 26.5257152,15.6038944 18.683753,17.0028365 C18.5105486,17.0336267 18.3413618,17.0662017 18.1744071,17.099223 L21.3255662,22.9323878 L23.0241297,26.0761031 L18.1208387,27.4219435 L12.0247588,29.0966579 L6.54471501,30.6000187 L5.56218192,30.8704362 C5.18363214,30.2845316 4.87829245,29.6598047 4.65107331,29.0016102 C3.52390562,25.7360731 4.45108474,22.3812894 6.79737914,19.7128128 C8.21961923,18.1188666 10.1909351,16.7939993 12.5925834,15.8636023 L11.1225782,12.7890532 C12.4291999,12.3718249 13.8416192,12.0599076 15.3446582,11.8586563 L16.8883199,14.7181208 C17.0543819,14.6900081 17.2204438,14.6632341 17.3887377,14.6377988 C22.0322222,13.9367659 26.5676771,13.8961586 30.7553841,14.87698 L30.7553841,14.8774262 C35.0247828,15.7194689 38.9433087,17.5851713 40.7507946,19.6771141 C41.1150595,20.0992511 41.4360233,20.494614 41.6958298,20.9462023 L40.7052615,21.2224209 L35.1140634,22.757018 L35.1140634,22.757018 Z" id="Shape"></path>
                <path d="M10.5556464,25.5406229 L16.5294119,24.0930413 L13.8581361,18.5079823 C10.4449384,20.3362011 10.0159451,23.0814298 10.5556464,25.5406229 L10.5556464,25.5406229 Z" id="Shape"></path>
            </g>
        </g>
    </g>
</svg>