<?xml version="1.0" encoding="UTF-8" standalone="no"?>
<svg width="45px" height="45px" viewBox="0 0 45 45" version="1.1" xmlns="http://www.w3.org/2000/svg" xmlns:xlink="http://www.w3.org/1999/xlink">
    <!-- Generator: sketchtool 3.6.1 (26313) - http://www.bohemiancoding.com/sketch -->
    <title>facebook</title>
    <desc>Created with sketchtool.</desc>
    <defs></defs>
    <g id="Page-1" stroke="none" stroke-width="1" fill="none" fill-rule="evenodd">
        <g id="Landing" transform="translate(-467.000000, -478.000000)" fill="#000000">
            <path d="M489.510029,478.498471 C477.374671,478.498471 467.501672,488.367721 467.501672,500.498471 C467.501672,512.628335 477.374671,522.498471 489.510029,522.498471 C501.6445,522.498471 511.518386,512.628335 511.518386,500.498471 C511.518386,488.367721 501.646273,478.498471 489.510029,478.498471 L489.510029,478.498471 Z M494.983307,501.272982 L491.402716,501.272982 L491.402716,514.030252 L486.096987,514.030252 L486.096987,501.272982 L483.574882,501.272982 L483.574882,496.76416 L486.096987,496.76416 L486.096987,493.847782 C486.096987,491.759085 487.089872,488.495329 491.451474,488.495329 L495.38312,488.510394 L495.38312,492.887176 L492.529463,492.887176 C492.064935,492.887176 491.404489,493.119352 491.404489,494.115405 L491.404489,496.765046 L495.446949,496.765046 L494.983307,501.272982 L494.983307,501.272982 Z" id="facebook"></path>
        </g>
    </g>
</svg>