<?xml version="1.0" encoding="UTF-8" standalone="no"?>
<svg width="45px" height="44px" viewBox="0 0 45 44" version="1.1" xmlns="http://www.w3.org/2000/svg" xmlns:xlink="http://www.w3.org/1999/xlink">
    <!-- Generator: sketchtool 3.6.1 (26313) - http://www.bohemiancoding.com/sketch -->
    <title>github</title>
    <desc>Created with sketchtool.</desc>
    <defs></defs>
    <g id="Page-1" stroke="none" stroke-width="1" fill="none" fill-rule="evenodd">
        <g id="Landing" transform="translate(-291.000000, -172.000000)" fill="#000000">
            <path d="M332.918413,183.231754 C330.951112,179.776494 328.282594,177.04096 324.912156,175.024535 C321.541217,173.008007 317.861156,172 313.869365,172 C309.878075,172 306.19681,173.008315 302.826573,175.024535 C299.455834,177.040857 296.787416,179.776494 294.820115,183.231754 C292.853115,186.686911 291.869565,190.459969 291.869565,194.550826 C291.869565,199.464872 293.268187,203.883709 296.066133,207.808467 C298.863778,211.733533 302.477921,214.449526 306.908261,215.956754 C307.423965,216.054871 307.805727,215.98586 308.053947,215.751471 C308.302268,215.516773 308.426278,215.222836 308.426278,214.870892 C308.426278,214.812166 308.421361,214.283839 308.41183,213.285294 C308.401997,212.286749 308.397382,211.415632 308.397382,210.672354 L307.738505,210.789189 C307.318417,210.868073 306.788465,210.901498 306.148651,210.892036 C305.509138,210.882883 304.845244,210.814181 304.157872,210.686444 C303.4702,210.559839 302.830586,210.26621 302.23853,209.806174 C301.646774,209.346138 301.226686,208.743966 300.978366,208.000586 L300.691919,207.324879 C300.500988,206.875024 300.200395,206.375289 299.789738,205.827524 C299.379081,205.279245 298.963808,204.907554 298.54372,204.711836 L298.343157,204.564661 C298.209516,204.466853 298.085506,204.348887 297.970827,204.211998 C297.856248,204.075108 297.770465,203.938115 297.713176,203.800917 C297.655786,203.663616 297.703343,203.550998 297.856349,203.462652 C298.009354,203.374306 298.285868,203.331419 298.687094,203.331419 L299.259787,203.419147 C299.641749,203.49762 300.11421,203.732009 300.677772,204.123755 C301.241034,204.515192 301.704064,205.02408 302.066963,205.650215 C302.506415,206.453041 303.035865,207.064778 303.656817,207.485732 C304.277267,207.906686 304.902834,208.116803 305.532916,208.116803 C306.162999,208.116803 306.707197,208.067848 307.165712,207.970451 C307.623726,207.872541 308.053446,207.725366 308.454671,207.52975 C308.626539,206.217624 309.094486,205.209617 309.858109,204.50501 C308.769713,204.387764 307.791179,204.211175 306.922007,203.976374 C306.053336,203.741265 305.15567,203.359702 304.22961,202.830655 C303.303048,202.302328 302.534408,201.646265 301.923489,200.863596 C301.31247,200.080516 300.811013,199.052454 300.41982,197.780335 C300.028427,196.507702 299.83268,195.039659 299.83268,193.375794 C299.83268,191.006706 300.587173,188.990692 302.095858,187.326622 C301.389123,185.545511 301.455844,183.548832 302.296221,181.336792 C302.850051,181.160408 303.671365,181.292773 304.759761,181.733062 C305.848359,182.173558 306.645393,182.550905 307.151666,182.863766 C307.657939,183.176525 308.063579,183.441563 308.369189,183.656514 C310.145559,183.147728 311.978717,182.893283 313.869164,182.893283 C315.759611,182.893283 317.59317,183.147728 319.36964,183.656514 L320.458137,182.952112 C321.202497,182.4821 322.081502,182.051375 323.093045,181.659835 C324.105189,181.268501 324.879147,181.160717 325.414115,181.3371 C326.273153,183.549244 326.349706,185.54582 325.64277,187.32693 C327.151355,188.991 327.90615,191.007528 327.90615,193.376103 C327.90615,195.039968 327.709701,196.512639 327.318909,197.795043 C326.927616,199.077652 326.421845,200.104686 325.801394,200.878303 C325.180242,201.651818 324.406686,202.302739 323.480625,202.830963 C322.554365,203.359599 321.656397,203.741162 320.787727,203.976271 C319.918655,204.211381 318.940121,204.388072 317.851724,204.505524 C318.844405,205.386103 319.340845,206.776085 319.340845,208.674853 L319.340845,214.870069 C319.340845,215.222013 319.46024,215.515848 319.69923,215.750648 C319.937918,215.985037 320.314864,216.054048 320.830568,215.955829 C325.26151,214.448806 328.875654,211.732711 331.673198,207.807644 C334.470442,203.882886 335.869565,199.464049 335.869565,194.550003 C335.868562,190.459661 334.88451,186.686911 332.918413,183.231754 L332.918413,183.231754 Z" id="github"></path>
        </g>
    </g>
</svg>