<?xml version="1.0" encoding="UTF-8" standalone="no"?>
<svg width="44px" height="44px" viewBox="0 0 44 44" version="1.1" xmlns="http://www.w3.org/2000/svg" xmlns:xlink="http://www.w3.org/1999/xlink">
    <!-- Generator: sketchtool 3.6.1 (26313) - http://www.bohemiancoding.com/sketch -->
    <title>instagram</title>
    <desc>Created with sketchtool.</desc>
    <defs></defs>
    <g id="Page-1" stroke="none" stroke-width="1" fill="none" fill-rule="evenodd">
        <g id="Landing" transform="translate(-505.000000, -172.000000)" fill="#000000">
            <g id="instagram" transform="translate(505.240803, 172.000000)">
                <path d="M21.868058,26.2369887 C24.2808117,26.2369887 26.2478358,24.2742337 26.2478358,21.860635 C26.2478358,20.9078755 25.9360012,20.028202 25.4198006,19.3096699 C24.6243582,18.2072162 23.3312138,17.4842813 21.8707006,17.4842813 C20.4093066,17.4842813 19.1170431,18.2063357 18.3198389,19.3087894 C17.8018765,20.0273215 17.4926846,20.906995 17.4918037,21.8597545 C17.489161,24.2733531 19.4544234,26.2369887 21.868058,26.2369887 L21.868058,26.2369887 Z" id="Shape"></path>
                <path d="M31.4283413,16.5068663 L31.4283413,12.8384781 L31.4283413,12.2925346 L30.8795477,12.2942957 L27.2115279,12.3057429 L27.2256221,16.5209552 L31.4283413,16.5068663 Z" id="Shape"></path>
                <path d="M21.8689389,0 C9.81045566,0 0,9.80673053 0,21.860635 C0,33.9136589 9.81045566,43.72127 21.8689389,43.72127 C33.9265412,43.72127 43.7378777,33.9136589 43.7378777,21.860635 C43.7378777,9.80673053 33.928303,0 21.8689389,0 L21.8689389,0 Z M34.3062041,19.3096699 L34.3062041,29.4888748 C34.3062041,32.1402231 32.149789,34.2949388 29.4991954,34.2949388 L14.2386823,34.2949388 C11.5872078,34.2949388 9.43167358,32.1402231 9.43167358,29.4888748 L9.43167358,19.3096699 L9.43167358,14.2341563 C9.43167358,11.5836886 11.5872078,9.42897284 14.2386823,9.42897284 L29.4983145,9.42897284 C32.149789,9.42897284 34.3062041,11.5836886 34.3062041,14.2341563 L34.3062041,19.3096699 L34.3062041,19.3096699 Z" id="Shape"></path>
                <path d="M28.672041,21.860635 C28.672041,25.6091536 25.6206431,28.661154 21.8689389,28.661154 C18.1172346,28.661154 15.0667176,25.6091536 15.0667176,21.860635 C15.0667176,20.9589477 15.2464188,20.0968852 15.5670623,19.3096699 L11.8541171,19.3096699 L11.8541171,29.4888748 C11.8541171,30.8044226 12.9226349,31.869893 14.2378015,31.869893 L29.4974336,31.869893 C30.8108384,31.869893 31.881118,30.8044226 31.881118,29.4888748 L31.881118,19.3096699 L28.166411,19.3096699 C28.4896971,20.0968852 28.672041,20.9589477 28.672041,21.860635 L28.672041,21.860635 Z" id="Shape"></path>
            </g>
        </g>
    </g>
</svg>