<?xml version="1.0" encoding="UTF-8" standalone="no"?>
<svg width="45px" height="44px" viewBox="0 0 45 44" version="1.1" xmlns="http://www.w3.org/2000/svg" xmlns:xlink="http://www.w3.org/1999/xlink">
    <!-- Generator: sketchtool 3.6.1 (26313) - http://www.bohemiancoding.com/sketch -->
    <title>linkedin</title>
    <desc>Created with sketchtool.</desc>
    <defs></defs>
    <g id="Page-1" stroke="none" stroke-width="1" fill="none" fill-rule="evenodd">
        <g id="Landing" transform="translate(-667.000000, -310.000000)" fill="#000000">
            <path d="M708.560358,309.996942 L671.060417,309.996942 C669.264768,309.996942 667.809365,311.407931 667.809365,313.149444 L667.809365,350.84311 C667.809365,352.584725 669.26528,353.996942 671.060417,353.996942 L708.560358,353.996942 C710.355598,353.996942 711.809365,352.583804 711.809365,350.84311 L711.809365,313.149444 C711.809365,311.408443 710.355598,309.996942 708.560358,309.996942 L708.560358,309.996942 Z M681.14891,346.827932 L674.500825,346.827932 L674.500825,326.962472 L681.14891,326.962472 L681.14891,346.827932 L681.14891,346.827932 Z M677.825532,324.248519 L677.780828,324.248519 C675.551432,324.248519 674.106259,322.723877 674.106259,320.815108 C674.106259,318.867875 675.593886,317.384561 677.867475,317.384561 C680.141268,317.384561 681.539896,318.867466 681.584089,320.815108 C681.584089,322.724286 680.14178,324.248519 677.825532,324.248519 L677.825532,324.248519 Z M705.113301,346.827932 L698.467364,346.827932 L698.467364,336.199221 C698.467364,333.52854 697.504426,331.706212 695.10102,331.706212 C693.262406,331.706212 692.170981,332.935624 691.691712,334.122582 C691.514121,334.546503 691.470133,335.139419 691.470133,335.731517 L691.470133,346.827523 L684.825423,346.827523 C684.825423,346.827523 684.912377,328.82531 684.825423,326.962165 L691.471156,326.962165 L691.471156,329.778518 C692.35338,328.425224 693.929905,326.494768 697.459108,326.494768 C701.8334,326.494768 705.113301,329.332399 705.113301,335.437003 L705.113301,346.827932 L705.113301,346.827932 Z M691.42819,329.909509 C691.451763,329.870772 691.484679,329.82416 691.517383,329.778825 L691.517383,329.909509 L691.42819,329.909509 L691.42819,329.909509 Z" id="linkedin"></path>
        </g>
    </g>
</svg>