<?xml version="1.0" encoding="UTF-8" standalone="no"?>
<svg width="45px" height="45px" viewBox="0 0 45 45" version="1.1" xmlns="http://www.w3.org/2000/svg" xmlns:xlink="http://www.w3.org/1999/xlink">
    <!-- Generator: sketchtool 3.6.1 (26313) - http://www.bohemiancoding.com/sketch -->
    <title>twitter</title>
    <desc>Created with sketchtool.</desc>
    <defs></defs>
    <g id="Page-1" stroke="none" stroke-width="1" fill="none" fill-rule="evenodd">
        <g id="Landing" transform="translate(-373.000000, -497.000000)" fill="#000000">
            <path d="M395.153846,497.382263 C383.023096,497.382263 373.153846,507.251513 373.153846,519.382263 C373.153846,531.512127 383.023096,541.382263 395.153846,541.382263 C407.28371,541.382263 417.153846,531.512127 417.153846,519.382263 C417.153846,507.251513 407.285482,497.382263 395.153846,497.382263 L395.153846,497.382263 Z M404.968154,514.347058 C404.977902,514.565055 404.983219,514.784825 404.983219,515.004594 C404.983219,521.696047 399.891299,529.409251 390.575018,529.409251 C387.715354,529.409251 385.053306,528.573595 382.813074,527.136231 C383.209191,527.183198 383.612398,527.207124 384.020921,527.207124 C386.394078,527.207124 388.576709,526.397167 390.310053,525.039558 C388.094634,524.998794 386.223934,523.534845 385.57969,521.522358 C385.888076,521.580845 386.206211,521.613633 386.531434,521.613633 C386.993128,521.613633 387.441528,521.553374 387.866003,521.437286 C385.54956,520.972934 383.804696,518.926773 383.804696,516.472088 C383.804696,516.45082 383.804696,516.428666 383.805582,516.408284 C384.487931,516.786678 385.268645,517.015309 386.098098,517.041008 C384.740489,516.134458 383.846346,514.583665 383.846346,512.82728 C383.846346,511.898577 384.095359,511.02836 384.531354,510.280434 C387.027688,513.344802 390.760227,515.359948 394.967751,515.572628 C394.880906,515.201324 394.837484,514.815841 394.837484,514.417951 C394.837484,511.622092 397.104301,509.354389 399.900161,509.354389 C401.35702,509.354389 402.671207,509.969389 403.596366,510.953036 C404.751043,510.726177 405.832167,510.306133 406.813155,509.723921 C406.432103,510.906955 405.631893,511.898577 404.583557,512.525983 C405.608853,512.403692 406.587182,512.132525 407.491959,511.729319 C406.8167,512.743094 405.958003,513.635465 404.968154,514.347058 L404.968154,514.347058 Z" id="twitter"></path>
        </g>
    </g>
</svg>