<?xml version="1.0" encoding="UTF-8" standalone="no"?>
<svg width="44px" height="44px" viewBox="0 0 44 44" version="1.1" xmlns="http://www.w3.org/2000/svg" xmlns:xlink="http://www.w3.org/1999/xlink">
    <!-- Generator: sketchtool 3.6.1 (26313) - http://www.bohemiancoding.com/sketch -->
    <title>vimeo</title>
    <desc>Created with sketchtool.</desc>
    <defs></defs>
    <g id="Page-1" stroke="none" stroke-width="1" fill="none" fill-rule="evenodd">
        <g id="Landing" transform="translate(-273.000000, -423.000000)" fill="#000000">
            <path d="M315,425 C312.966525,423.806883 311.023031,423 309,423 L281,423 C278.977671,423 277.034178,423.806883 275,425 C273.806896,427.034113 273,428.977475 273,431 L273,459 C273,461.022023 273.806896,462.965586 275,465 C277.034178,466.193117 278.977671,467 281,467 L309,467 C311.02273,467 312.966224,466.193117 315,465 C316.193104,462.965586 317,461.022124 317,459 L317,431 C316.9999,428.977475 316.193004,427.033812 315,425 L315,425 Z M309,437 C308.59858,438.62197 307.820827,440.792585 307,444 C305.23522,446.675093 303.608747,449.477563 302,452 C299.401226,455.207142 297.043186,457.478032 295,459 C293.930784,459.356077 293.213887,459.658614 292,460 C291.629439,460.060319 290.827402,460.045922 290,460 C288.865326,459.31782 287.893902,458.119854 287,456 C286.705417,455.245097 286.16762,453.357689 285,451 C284.809649,447.85826 284.309417,446.066596 284,445 C283.89472,444.935883 283.776675,444.54777 284,444 C283.493702,443.493874 283.352265,443.034279 283,443 C283.06959,442.248186 282.895247,441.879604 283,442 C282.366965,440.978739 281.975561,440.691505 282,441 C281.051316,440.653146 280.503806,440.753623 280,441 C279.24039,441.194189 278.726381,441.275034 278,441 C278.10394,441.179692 277.901151,440.988102 278,441 C277.542554,440.298659 277.301904,440.049582 277,440 L277,440 C277.754561,439.157878 278.910041,438.1809 280,437 C282.02274,435.344301 283.310241,434.328763 284,434 C285.649547,432.929944 286.847448,432.69023 288,433 C288.431996,433.150328 288.90854,433.533508 289,434 C289.794824,434.759865 290.129733,435.421017 290,436 C290.563955,436.800606 290.884492,438.371785 291,441 C291.375011,441.227111 291.455492,441.912224 292,443 C291.662543,443.885913 291.757098,444.690531 292,445 C291.926486,445.93642 292.105784,446.635829 292,447 C292.652699,448.187879 293.006341,448.806042 293,449 C294.251817,450.147272 295.072289,450.281677 296,450 C296.430756,449.265938 297.100375,448.31715 298,447 C298.798211,445.079852 299.28873,443.709425 299,443 C299.514613,441.25671 299.264348,440.308325 299,440 C298.00123,439.426688 296.930691,439.273154 295,439 C295.723275,438.468335 296.143224,437.592035 297,437 C297.218421,435.963268 297.779411,435.292049 298,435 C298.949956,434.238253 299.558422,433.773625 300,433 C300.821937,432.968806 301.363995,432.676739 302,432 C302.269904,432.312587 302.656551,432.19268 303,432 C305.52404,431.752114 307.287788,432.183116 308,433 C308.96699,434.329367 309.165021,435.594384 309,437 L309,437 Z" id="vimeo"></path>
        </g>
    </g>
</svg>